<?xml version="1.0" standalone="no"?>
<!DOCTYPE svg PUBLIC "-//W3C//DTD SVG 20010904//EN"
 "http://www.w3.org/TR/2001/REC-SVG-20010904/DTD/svg10.dtd">
<svg version="1.0" xmlns="http://www.w3.org/2000/svg"
 width="640.000000pt" height="816.000000pt" viewBox="0 0 640.000000 816.000000"
 preserveAspectRatio="xMidYMid meet">

<g transform="translate(0.000000,816.000000) scale(0.100000,-0.100000)"
fill="#000000" stroke="none">
<path d="M4038 7513 l-3 -278 -1425 -5 -1425 -5 -3 -879 c-2 -834 -1 -878 15
-872 10 4 75 39 145 77 l128 70 2 657 3 657 1280 0 1280 0 0 -2855 0 -2855
-1280 -3 -1280 -2 -143 -143 -142 -142 1422 -5 1423 -5 3 -278 c1 -176 6 -277
12 -277 6 0 18 4 28 10 19 11 393 190 397 190 1 0 88 41 191 91 104 50 234
113 289 139 55 26 136 65 180 86 l80 39 255 5 255 5 0 3145 0 3145 -315 5
-315 5 -215 116 c-118 64 -264 142 -325 174 -60 31 -141 74 -180 95 -190 101
-323 170 -328 170 -4 0 -8 -125 -9 -277z"/>
<path d="M2271 6544 c-88 -23 -167 -72 -233 -143 -252 -269 -140 -697 214
-817 73 -25 224 -25 298 1 363 122 467 575 193 837 -98 93 -214 139 -348 137
-38 0 -94 -7 -124 -15z"/>
<path d="M1783 5386 c-51 -17 -62 -23 -398 -228 -493 -301 -489 -298 -533
-349 -26 -30 -92 -146 -92 -162 0 -3 -22 -51 -49 -108 -136 -290 -148 -328
-130 -403 38 -160 206 -241 355 -172 68 31 101 75 186 241 39 77 94 184 122
239 l51 98 150 84 c131 73 175 93 175 81 0 -7 -30 -215 -45 -307 -8 -52 -22
-140 -30 -195 -8 -55 -22 -143 -30 -195 -65 -420 -67 -478 -20 -572 18 -36 25
-62 22 -83 -32 -179 -71 -407 -83 -480 -8 -49 -21 -101 -28 -115 -7 -14 -102
-169 -211 -345 -108 -176 -218 -354 -243 -395 -25 -41 -58 -94 -74 -118 -68
-99 -87 -206 -53 -288 56 -133 213 -200 342 -144 89 38 76 19 520 745 122 199
226 379 232 400 5 22 15 69 21 105 26 162 58 331 63 336 3 3 70 -38 149 -92
240 -163 243 -166 310 -284 33 -58 121 -211 196 -340 74 -129 143 -248 152
-265 237 -415 314 -544 348 -572 96 -83 231 -82 331 4 60 51 81 98 81 180 0
65 -3 73 -68 193 -61 111 -297 538 -349 630 -11 19 -86 155 -166 301 l-147
266 -186 184 c-191 191 -234 248 -234 316 0 30 45 331 69 458 5 28 17 102 26
165 25 169 25 169 70 82 40 -77 98 -133 165 -159 30 -12 143 -57 250 -101 561
-229 543 -222 606 -222 100 1 171 48 226 153 18 33 23 58 23 122 0 92 -22 146
-78 190 -18 15 -147 76 -287 137 -140 60 -300 129 -355 153 l-99 43 -131 294
c-157 351 -153 343 -204 396 -89 92 -140 102 -551 108 -260 3 -333 1 -367 -10z"/>
</g>
</svg>
