<?xml version="1.0" standalone="no"?>
<!DOCTYPE svg PUBLIC "-//W3C//DTD SVG 20010904//EN"
 "http://www.w3.org/TR/2001/REC-SVG-20010904/DTD/svg10.dtd">
<svg version="1.0" xmlns="http://www.w3.org/2000/svg"
 width="474.000000pt" height="672.000000pt" viewBox="0 0 474.000000 672.000000"
 preserveAspectRatio="xMidYMid meet">

<g transform="translate(0.000000,672.000000) scale(0.100000,-0.100000)"
fill="#000000" stroke="none">
<path d="M1630 3161 c0 -2301 3 -2950 12 -2953 7 -3 71 11 143 29 71 19 243
63 380 98 138 35 313 80 390 100 170 44 419 108 700 180 116 29 309 79 430
110 121 31 244 62 274 70 29 7 57 19 62 26 5 8 9 1061 9 2340 0 2127 -2 2328
-17 2340 -8 8 -90 33 -182 56 -91 23 -265 67 -386 98 -121 31 -332 85 -470
120 -137 35 -349 89 -470 120 -121 32 -296 76 -390 100 -93 24 -232 59 -308
79 -76 20 -147 36 -158 36 -19 0 -19 -34 -19 -2949z m507 113 c82 -51 79 -175
-6 -231 -81 -55 -195 2 -207 103 -14 108 118 187 213 128z"/>
<path d="M802 5618 c-9 -9 -12 -555 -12 -2465 l0 -2453 23 -5 c12 -3 159 -4
327 -3 l305 3 3 117 3 118 -203 2 -203 3 -3 2223 c-2 1774 0 2222 10 2222 7 1
90 1 185 1 94 0 181 3 192 6 21 5 21 11 19 122 l-3 116 -315 3 c-237 2 -319
-1 -328 -10z"/>
</g>
</svg>
